<?xml version="1.0" encoding="UTF-8"?>
<svg id="Layer_1" xmlns="http://www.w3.org/2000/svg" version="1.1" viewBox="0 0 128 128">
  <!-- Generator: Adobe Illustrator 29.4.0, SVG Export Plug-In . SVG Version: 2.1.0 Build 152)  -->
  <defs>
    <style>
      .st0 {
        fill: #1e1404;
      }

      .st1 {
        fill: #b38941;
      }

      .st2 {
        fill: #f8d18e;
      }

      .st3 {
        fill: #608343;
      }

      .st4 {
        fill: #f2bb57;
      }

      .st5 {
        fill: #f8c43a;
      }

      .st6 {
        fill: #2e331f;
      }

      .st7 {
        fill: #f2ac3c;
      }

      .st8 {
        fill: #e37363;
        stroke: #90322a;
        stroke-width: 4px;
      }
    </style>
  </defs>
  <rect class="st8" x="2" y="2" width="124" height="124" rx="14" ry="14"/>
  <g>
    <rect class="st6" x="37.63" y="28.84" width="4.39" height="4.39"/>
    <rect class="st6" x="42.03" y="28.84" width="4.39" height="4.39"/>
    <rect class="st3" x="46.42" y="28.84" width="4.39" height="4.39"/>
    <rect class="st6" x="50.82" y="28.84" width="4.39" height="4.39"/>
    <rect class="st6" x="72.79" y="28.84" width="4.39" height="4.39"/>
    <rect class="st3" x="77.18" y="28.84" width="4.39" height="4.39"/>
    <rect class="st6" x="81.58" y="28.84" width="4.39" height="4.39"/>
    <rect class="st6" x="85.97" y="28.84" width="4.39" height="4.39"/>
    <rect class="st6" x="37.63" y="33.24" width="4.39" height="4.39"/>
    <rect class="st3" x="42.03" y="33.24" width="4.39" height="4.39"/>
    <rect class="st3" x="46.42" y="33.24" width="4.39" height="4.39"/>
    <rect class="st3" x="50.82" y="33.24" width="4.39" height="4.39"/>
    <rect class="st0" x="55.21" y="33.24" width="4.39" height="4.39"/>
    <rect class="st6" x="59.61" y="33.24" width="4.39" height="4.39"/>
    <rect class="st6" x="64" y="33.24" width="4.39" height="4.39"/>
    <rect class="st0" x="68.39" y="33.24" width="4.39" height="4.39"/>
    <rect class="st3" x="72.79" y="33.24" width="4.39" height="4.39"/>
    <rect class="st3" x="77.18" y="33.24" width="4.39" height="4.39"/>
    <rect class="st3" x="81.58" y="33.24" width="4.39" height="4.39"/>
    <rect class="st6" x="85.97" y="33.24" width="4.39" height="4.39"/>
    <rect class="st0" x="28.84" y="37.63" width="4.39" height="4.39"/>
    <rect class="st0" x="33.24" y="37.63" width="4.39" height="4.39"/>
    <rect class="st2" x="37.63" y="37.63" width="4.39" height="4.39"/>
    <rect class="st2" x="42.03" y="37.63" width="4.39" height="4.39"/>
    <rect class="st6" x="46.42" y="37.63" width="4.39" height="4.39"/>
    <rect class="st3" x="50.82" y="37.63" width="4.39" height="4.39"/>
    <rect class="st6" x="55.21" y="37.63" width="4.39" height="4.39"/>
    <rect class="st6" x="59.61" y="37.63" width="4.39" height="4.39"/>
    <rect class="st6" x="64" y="37.63" width="4.39" height="4.39"/>
    <rect class="st6" x="68.39" y="37.63" width="4.39" height="4.39"/>
    <rect class="st3" x="72.79" y="37.63" width="4.39" height="4.39"/>
    <rect class="st6" x="77.18" y="37.63" width="4.39" height="4.39"/>
    <rect class="st2" x="81.58" y="37.63" width="4.39" height="4.39"/>
    <rect class="st2" x="85.97" y="37.63" width="4.39" height="4.39"/>
    <rect class="st0" x="90.37" y="37.63" width="4.39" height="4.39"/>
    <rect class="st0" x="94.76" y="37.63" width="4.39" height="4.39"/>
    <rect class="st0" x="28.84" y="42.03" width="4.39" height="4.39"/>
    <rect class="st2" x="33.24" y="42.03" width="4.39" height="4.39"/>
    <rect class="st0" x="37.63" y="42.03" width="4.39" height="4.39"/>
    <rect class="st2" x="42.03" y="42.03" width="4.39" height="4.39"/>
    <rect class="st6" x="46.42" y="42.03" width="4.39" height="4.39"/>
    <rect class="st3" x="50.82" y="42.03" width="4.39" height="4.39"/>
    <rect class="st3" x="55.21" y="42.03" width="4.39" height="4.39"/>
    <rect class="st6" x="59.61" y="42.03" width="4.39" height="4.39"/>
    <rect class="st6" x="64" y="42.03" width="4.39" height="4.39"/>
    <rect class="st3" x="68.39" y="42.03" width="4.39" height="4.39"/>
    <rect class="st3" x="72.79" y="42.03" width="4.39" height="4.39"/>
    <rect class="st6" x="77.18" y="42.03" width="4.39" height="4.39"/>
    <rect class="st2" x="81.58" y="42.03" width="4.39" height="4.39"/>
    <rect class="st0" x="85.97" y="42.03" width="4.39" height="4.39"/>
    <rect class="st2" x="90.37" y="42.03" width="4.39" height="4.39"/>
    <rect class="st0" x="94.76" y="42.03" width="4.39" height="4.39"/>
    <rect class="st0" x="28.84" y="46.42" width="4.39" height="4.39"/>
    <rect class="st2" x="33.24" y="46.42" width="4.39" height="4.39"/>
    <rect class="st2" x="37.63" y="46.42" width="4.39" height="4.39"/>
    <rect class="st2" x="42.03" y="46.42" width="4.39" height="4.39"/>
    <rect class="st0" x="46.42" y="46.42" width="4.39" height="4.39"/>
    <rect class="st3" x="50.82" y="46.42" width="4.39" height="4.39"/>
    <rect class="st6" x="55.21" y="46.42" width="4.39" height="4.39"/>
    <rect class="st6" x="59.61" y="46.42" width="4.39" height="4.39"/>
    <rect class="st6" x="64" y="46.42" width="4.39" height="4.39"/>
    <rect class="st6" x="68.39" y="46.42" width="4.39" height="4.39"/>
    <rect class="st3" x="72.79" y="46.42" width="4.39" height="4.39"/>
    <rect class="st0" x="77.18" y="46.42" width="4.39" height="4.39"/>
    <rect class="st2" x="81.58" y="46.42" width="4.39" height="4.39"/>
    <rect class="st2" x="85.97" y="46.42" width="4.39" height="4.39"/>
    <rect class="st2" x="90.37" y="46.42" width="4.39" height="4.39"/>
    <rect class="st0" x="94.76" y="46.42" width="4.39" height="4.39"/>
    <rect class="st0" x="33.24" y="50.82" width="4.39" height="4.39"/>
    <rect class="st2" x="37.63" y="50.82" width="4.39" height="4.39"/>
    <rect class="st0" x="42.03" y="50.82" width="4.39" height="4.39"/>
    <rect class="st3" x="46.42" y="50.82" width="4.39" height="4.39"/>
    <rect class="st3" x="50.82" y="50.82" width="4.39" height="4.39"/>
    <rect class="st3" x="55.21" y="50.82" width="4.39" height="4.39"/>
    <rect class="st6" x="59.61" y="50.82" width="4.39" height="4.39"/>
    <rect class="st6" x="64" y="50.82" width="4.39" height="4.39"/>
    <rect class="st3" x="68.39" y="50.82" width="4.39" height="4.39"/>
    <rect class="st3" x="72.79" y="50.82" width="4.39" height="4.39"/>
    <rect class="st3" x="77.18" y="50.82" width="4.39" height="4.39"/>
    <rect class="st0" x="81.58" y="50.82" width="4.39" height="4.39"/>
    <rect class="st2" x="85.97" y="50.82" width="4.39" height="4.39"/>
    <rect class="st0" x="90.37" y="50.82" width="4.39" height="4.39"/>
    <rect class="st0" x="37.63" y="55.21" width="4.39" height="4.39"/>
    <rect class="st4" x="42.03" y="55.21" width="4.39" height="4.39"/>
    <rect class="st2" x="46.42" y="55.21" width="4.39" height="4.39"/>
    <rect class="st2" x="50.82" y="55.21" width="4.39" height="4.39"/>
    <rect class="st2" x="55.21" y="55.21" width="4.39" height="4.39"/>
    <rect class="st2" x="59.61" y="55.21" width="4.39" height="4.39"/>
    <rect class="st2" x="64" y="55.21" width="4.39" height="4.39"/>
    <rect class="st2" x="68.39" y="55.21" width="4.39" height="4.39"/>
    <rect class="st2" x="72.79" y="55.21" width="4.39" height="4.39"/>
    <rect class="st2" x="77.18" y="55.21" width="4.39" height="4.39"/>
    <rect class="st4" x="81.58" y="55.21" width="4.39" height="4.39"/>
    <rect class="st0" x="85.97" y="55.21" width="4.39" height="4.39"/>
    <rect class="st6" x="37.63" y="59.61" width="4.39" height="4.39"/>
    <rect class="st4" x="42.03" y="59.61" width="4.39" height="4.39"/>
    <rect class="st2" x="46.42" y="59.61" width="4.39" height="4.39"/>
    <rect class="st2" x="50.82" y="59.61" width="4.39" height="4.39"/>
    <rect class="st2" x="55.21" y="59.61" width="4.39" height="4.39"/>
    <rect class="st5" x="59.61" y="59.61" width="4.39" height="4.39"/>
    <rect class="st5" x="64" y="59.61" width="4.39" height="4.39"/>
    <rect class="st2" x="68.39" y="59.61" width="4.39" height="4.39"/>
    <rect class="st2" x="72.79" y="59.61" width="4.39" height="4.39"/>
    <rect class="st2" x="77.18" y="59.61" width="4.39" height="4.39"/>
    <rect class="st4" x="81.58" y="59.61" width="4.39" height="4.39"/>
    <rect class="st6" x="85.97" y="59.61" width="4.39" height="4.39"/>
    <rect class="st0" x="33.24" y="64" width="4.39" height="4.39"/>
    <rect class="st3" x="37.63" y="64" width="4.39" height="4.39"/>
    <rect class="st4" x="42.03" y="64" width="4.39" height="4.39"/>
    <rect class="st4" x="46.42" y="64" width="4.39" height="4.39"/>
    <rect class="st2" x="50.82" y="64" width="4.39" height="4.39"/>
    <rect class="st2" x="55.21" y="64" width="4.39" height="4.39"/>
    <rect class="st2" x="59.61" y="64" width="4.39" height="4.39"/>
    <rect class="st2" x="64" y="64" width="4.39" height="4.39"/>
    <rect class="st2" x="68.39" y="64" width="4.39" height="4.39"/>
    <rect class="st2" x="72.79" y="64" width="4.39" height="4.39"/>
    <rect class="st4" x="77.18" y="64" width="4.39" height="4.39"/>
    <rect class="st4" x="81.58" y="64" width="4.39" height="4.39"/>
    <rect class="st3" x="85.97" y="64" width="4.39" height="4.39"/>
    <rect class="st0" x="90.37" y="64" width="4.39" height="4.39"/>
    <rect class="st0" x="28.84" y="68.39" width="4.39" height="4.39"/>
    <rect class="st0" x="33.24" y="68.39" width="4.39" height="4.39"/>
    <rect class="st3" x="37.63" y="68.39" width="4.39" height="4.39"/>
    <rect class="st6" x="42.03" y="68.39" width="4.39" height="4.39"/>
    <rect class="st4" x="46.42" y="68.39" width="4.39" height="4.39"/>
    <rect class="st4" x="50.82" y="68.39" width="4.39" height="4.39"/>
    <rect class="st2" x="55.21" y="68.39" width="4.39" height="4.39"/>
    <rect class="st2" x="59.61" y="68.39" width="4.39" height="4.39"/>
    <rect class="st2" x="64" y="68.39" width="4.39" height="4.39"/>
    <rect class="st2" x="68.39" y="68.39" width="4.39" height="4.39"/>
    <rect class="st4" x="72.79" y="68.39" width="4.39" height="4.39"/>
    <rect class="st4" x="77.18" y="68.39" width="4.39" height="4.39"/>
    <rect class="st6" x="81.58" y="68.39" width="4.39" height="4.39"/>
    <rect class="st3" x="85.97" y="68.39" width="4.39" height="4.39"/>
    <rect class="st0" x="90.37" y="68.39" width="4.39" height="4.39"/>
    <rect class="st0" x="94.76" y="68.39" width="4.39" height="4.39"/>
    <rect class="st3" x="24.45" y="72.79" width="4.39" height="4.39"/>
    <rect class="st6" x="28.84" y="72.79" width="4.39" height="4.39"/>
    <rect class="st0" x="33.24" y="72.79" width="4.39" height="4.39"/>
    <rect class="st3" x="37.63" y="72.79" width="4.39" height="4.39"/>
    <rect class="st3" x="42.03" y="72.79" width="4.39" height="4.39"/>
    <rect class="st7" x="46.42" y="72.79" width="4.39" height="4.39"/>
    <rect class="st4" x="50.82" y="72.79" width="4.39" height="4.39"/>
    <rect class="st4" x="55.21" y="72.79" width="4.39" height="4.39"/>
    <rect class="st4" x="59.61" y="72.79" width="4.39" height="4.39"/>
    <rect class="st4" x="64" y="72.79" width="4.39" height="4.39"/>
    <rect class="st4" x="68.39" y="72.79" width="4.39" height="4.39"/>
    <rect class="st4" x="72.79" y="72.79" width="4.39" height="4.39"/>
    <rect class="st7" x="77.18" y="72.79" width="4.39" height="4.39"/>
    <rect class="st3" x="81.58" y="72.79" width="4.39" height="4.39"/>
    <rect class="st3" x="85.97" y="72.79" width="4.39" height="4.39"/>
    <rect class="st0" x="90.37" y="72.79" width="4.39" height="4.39"/>
    <rect class="st6" x="94.76" y="72.79" width="4.39" height="4.39"/>
    <rect class="st3" x="99.16" y="72.79" width="4.39" height="4.39"/>
    <rect class="st0" x="20.05" y="77.18" width="4.39" height="4.39"/>
    <rect class="st3" x="24.45" y="77.18" width="4.39" height="4.39"/>
    <rect class="st6" x="28.84" y="77.18" width="4.39" height="4.39"/>
    <rect class="st0" x="33.24" y="77.18" width="4.39" height="4.39"/>
    <rect class="st3" x="37.63" y="77.18" width="4.39" height="4.39"/>
    <rect class="st3" x="42.03" y="77.18" width="4.39" height="4.39"/>
    <rect class="st0" x="46.42" y="77.18" width="4.39" height="4.39"/>
    <rect class="st4" x="50.82" y="77.18" width="4.39" height="4.39"/>
    <rect class="st4" x="55.21" y="77.18" width="4.39" height="4.39"/>
    <rect class="st4" x="59.61" y="77.18" width="4.39" height="4.39"/>
    <rect class="st4" x="64" y="77.18" width="4.39" height="4.39"/>
    <rect class="st4" x="68.39" y="77.18" width="4.39" height="4.39"/>
    <rect class="st4" x="72.79" y="77.18" width="4.39" height="4.39"/>
    <rect class="st0" x="77.18" y="77.18" width="4.39" height="4.39"/>
    <rect class="st3" x="81.58" y="77.18" width="4.39" height="4.39"/>
    <rect class="st3" x="85.97" y="77.18" width="4.39" height="4.39"/>
    <rect class="st0" x="90.37" y="77.18" width="4.39" height="4.39"/>
    <rect class="st6" x="94.76" y="77.18" width="4.39" height="4.39"/>
    <rect class="st3" x="99.16" y="77.18" width="4.39" height="4.39"/>
    <rect class="st0" x="103.55" y="77.18" width="4.39" height="4.39"/>
    <rect class="st0" x="20.05" y="81.58" width="4.39" height="4.39"/>
    <rect class="st6" x="24.45" y="81.58" width="4.39" height="4.39"/>
    <rect class="st6" x="28.84" y="81.58" width="4.39" height="4.39"/>
    <rect class="st0" x="33.24" y="81.58" width="4.39" height="4.39"/>
    <rect class="st6" x="37.63" y="81.58" width="4.39" height="4.39"/>
    <rect class="st3" x="42.03" y="81.58" width="4.39" height="4.39"/>
    <rect class="st0" x="46.42" y="81.58" width="4.39" height="4.39"/>
    <rect class="st4" x="50.82" y="81.58" width="4.39" height="4.39"/>
    <rect class="st4" x="55.21" y="81.58" width="4.39" height="4.39"/>
    <rect class="st4" x="59.61" y="81.58" width="4.39" height="4.39"/>
    <rect class="st4" x="64" y="81.58" width="4.39" height="4.39"/>
    <rect class="st4" x="68.39" y="81.58" width="4.39" height="4.39"/>
    <rect class="st4" x="72.79" y="81.58" width="4.39" height="4.39"/>
    <rect class="st0" x="77.18" y="81.58" width="4.39" height="4.39"/>
    <rect class="st3" x="81.58" y="81.58" width="4.39" height="4.39"/>
    <rect class="st6" x="85.97" y="81.58" width="4.39" height="4.39"/>
    <rect class="st0" x="90.37" y="81.58" width="4.39" height="4.39"/>
    <rect class="st6" x="94.76" y="81.58" width="4.39" height="4.39"/>
    <rect class="st6" x="99.16" y="81.58" width="4.39" height="4.39"/>
    <rect class="st0" x="103.55" y="81.58" width="4.39" height="4.39"/>
    <rect class="st0" x="24.45" y="85.97" width="4.39" height="4.39"/>
    <rect class="st0" x="28.84" y="85.97" width="4.39" height="4.39"/>
    <rect class="st6" x="37.63" y="85.97" width="4.39" height="4.39"/>
    <rect class="st3" x="42.03" y="85.97" width="4.39" height="4.39"/>
    <rect class="st3" x="46.42" y="85.97" width="4.39" height="4.39"/>
    <rect class="st7" x="50.82" y="85.97" width="4.39" height="4.39"/>
    <rect class="st4" x="55.21" y="85.97" width="4.39" height="4.39"/>
    <rect class="st4" x="59.61" y="85.97" width="4.39" height="4.39"/>
    <rect class="st4" x="64" y="85.97" width="4.39" height="4.39"/>
    <rect class="st4" x="68.39" y="85.97" width="4.39" height="4.39"/>
    <rect class="st7" x="72.79" y="85.97" width="4.39" height="4.39"/>
    <rect class="st3" x="77.18" y="85.97" width="4.39" height="4.39"/>
    <rect class="st3" x="81.58" y="85.97" width="4.39" height="4.39"/>
    <rect class="st6" x="85.97" y="85.97" width="4.39" height="4.39"/>
    <rect class="st0" x="94.76" y="85.97" width="4.39" height="4.39"/>
    <rect class="st0" x="99.16" y="85.97" width="4.39" height="4.39"/>
    <rect class="st0" x="15.66" y="90.37" width="4.39" height="4.39"/>
    <rect class="st3" x="20.05" y="90.37" width="4.39" height="4.39"/>
    <rect class="st3" x="24.45" y="90.37" width="4.39" height="4.39"/>
    <rect class="st6" x="28.84" y="90.37" width="4.39" height="4.39"/>
    <rect class="st0" x="33.24" y="90.37" width="4.39" height="4.39"/>
    <rect class="st3" x="37.63" y="90.37" width="4.39" height="4.39"/>
    <rect class="st6" x="42.03" y="90.37" width="4.39" height="4.39"/>
    <rect class="st3" x="46.42" y="90.37" width="4.39" height="4.39"/>
    <rect class="st0" x="50.82" y="90.37" width="4.39" height="4.39"/>
    <rect class="st7" x="55.21" y="90.37" width="4.39" height="4.39"/>
    <rect class="st7" x="59.61" y="90.37" width="4.39" height="4.39"/>
    <rect class="st7" x="64" y="90.37" width="4.39" height="4.39"/>
    <rect class="st7" x="68.39" y="90.37" width="4.39" height="4.39"/>
    <rect class="st0" x="72.79" y="90.37" width="4.39" height="4.39"/>
    <rect class="st3" x="77.18" y="90.37" width="4.39" height="4.39"/>
    <rect class="st6" x="81.58" y="90.37" width="4.39" height="4.39"/>
    <rect class="st3" x="85.97" y="90.37" width="4.39" height="4.39"/>
    <rect class="st0" x="90.37" y="90.37" width="4.39" height="4.39"/>
    <rect class="st6" x="94.76" y="90.37" width="4.39" height="4.39"/>
    <rect class="st3" x="99.16" y="90.37" width="4.39" height="4.39"/>
    <rect class="st3" x="103.55" y="90.37" width="4.39" height="4.39"/>
    <rect class="st0" x="107.95" y="90.37" width="4.39" height="4.39"/>
    <rect class="st0" x="15.66" y="94.76" width="4.39" height="4.39"/>
    <rect class="st6" x="20.05" y="94.76" width="4.39" height="4.39"/>
    <rect class="st6" x="24.45" y="94.76" width="4.39" height="4.39"/>
    <rect class="st6" x="28.84" y="94.76" width="4.39" height="4.39"/>
    <rect class="st0" x="33.24" y="94.76" width="4.39" height="4.39"/>
    <rect class="st6" x="37.63" y="94.76" width="4.39" height="4.39"/>
    <rect class="st0" x="42.03" y="94.76" width="4.39" height="4.39"/>
    <rect class="st6" x="46.42" y="94.76" width="4.39" height="4.39"/>
    <rect class="st0" x="50.82" y="94.76" width="4.39" height="4.39"/>
    <rect class="st1" x="55.21" y="94.76" width="4.39" height="4.39"/>
    <rect class="st1" x="59.61" y="94.76" width="4.39" height="4.39"/>
    <rect class="st1" x="64" y="94.76" width="4.39" height="4.39"/>
    <rect class="st1" x="68.39" y="94.76" width="4.39" height="4.39"/>
    <rect class="st0" x="72.79" y="94.76" width="4.39" height="4.39"/>
    <rect class="st6" x="77.18" y="94.76" width="4.39" height="4.39"/>
    <rect class="st0" x="81.58" y="94.76" width="4.39" height="4.39"/>
    <rect class="st6" x="85.97" y="94.76" width="4.39" height="4.39"/>
    <rect class="st0" x="90.37" y="94.76" width="4.39" height="4.39"/>
    <rect class="st6" x="94.76" y="94.76" width="4.39" height="4.39"/>
    <rect class="st6" x="99.16" y="94.76" width="4.39" height="4.39"/>
    <rect class="st6" x="103.55" y="94.76" width="4.39" height="4.39"/>
    <rect class="st0" x="107.95" y="94.76" width="4.39" height="4.39"/>
  </g>
</svg>